<svg xmlns="http://www.w3.org/2000/svg" width="1200" height="350" viewBox="0 0 1200 350" role="img" aria-label="How VoiceForge works: record or load a clip, run DSP and AI effects, preview it, export a WAV — nothing leaves your computer">
<defs>
<linearGradient id="bg" x1="0" y1="0" x2="0" y2="1"><stop offset="0" stop-color="#34302c"/><stop offset=".5" stop-color="#27231f"/><stop offset="1" stop-color="#1d1a17"/></linearGradient>
<filter id="brush" x="0" y="0" width="100%" height="100%"><feTurbulence type="fractalNoise" baseFrequency="0.004 0.8" numOctaves="2" seed="3"/><feColorMatrix values="0 0 0 0 1  0 0 0 0 .95  0 0 0 0 .9  0 0 0 .5 -.12"/></filter>
<filter id="glow" x="-30%" y="-80%" width="160%" height="260%"><feGaussianBlur stdDeviation="5" result="b"/><feMerge><feMergeNode in="b"/><feMergeNode in="SourceGraphic"/></feMerge></filter>
<filter id="glow2" x="-30%" y="-30%" width="160%" height="160%"><feGaussianBlur stdDeviation="2.2" result="b"/><feMerge><feMergeNode in="b"/><feMergeNode in="SourceGraphic"/></feMerge></filter>
<linearGradient id="molten" x1="0" y1="0" x2="0" y2="1"><stop offset="0" stop-color="#ffd56a"/><stop offset=".5" stop-color="#ff8a1f"/><stop offset="1" stop-color="#d9460b"/></linearGradient>
<linearGradient id="knurl" x1="0" y1="0" x2="1" y2="1"><stop offset="0" stop-color="#8d8780"/><stop offset="1" stop-color="#2a2623"/></linearGradient>
<linearGradient id="bez" x1="0" y1="0" x2="0" y2="1"><stop offset="0" stop-color="#4a4540"/><stop offset="1" stop-color="#171413"/></linearGradient>
<linearGradient id="mod" x1="0" y1="0" x2="0" y2="1"><stop offset="0" stop-color="#3b3631"/><stop offset="1" stop-color="#25211d"/></linearGradient>
<linearGradient id="lcd" x1="0" y1="0" x2="0" y2="1"><stop offset="0" stop-color="#0e0c0a"/><stop offset="1" stop-color="#1c1814"/></linearGradient>
<radialGradient id="jack" cx=".35" cy=".3" r=".9"><stop offset="0" stop-color="#cfc9c1"/><stop offset=".6" stop-color="#6b655f"/><stop offset="1" stop-color="#2a2623"/></radialGradient>
</defs>
<rect width="1200" height="350" fill="url(#bg)"/>
<rect width="1200" height="350" filter="url(#brush)" opacity=".3"/>
<rect x="8" y="8" width="1184" height="334" rx="14" fill="none" stroke="#000" stroke-opacity=".5" stroke-width="2"/>
<rect x="10" y="10" width="1180" height="330" rx="12" fill="none" stroke="#fff" stroke-opacity=".08" stroke-width="1.5"/>
<g transform="translate(30 30) rotate(20)"><circle r="8" fill="#14110f" opacity=".6" cy="1.5"/><circle r="7.5" fill="url(#knurl)"/><rect x="-5.5" y="-1.2" width="11" height="2.4" fill="#16130f"/></g>
<g transform="translate(1170 30) rotate(70)"><circle r="8" fill="#14110f" opacity=".6" cy="1.5"/><circle r="7.5" fill="url(#knurl)"/><rect x="-5.5" y="-1.2" width="11" height="2.4" fill="#16130f"/></g>
<g transform="translate(30 320) rotate(140)"><circle r="8" fill="#14110f" opacity=".6" cy="1.5"/><circle r="7.5" fill="url(#knurl)"/><rect x="-5.5" y="-1.2" width="11" height="2.4" fill="#16130f"/></g>
<g transform="translate(1170 320) rotate(100)"><circle r="8" fill="#14110f" opacity=".6" cy="1.5"/><circle r="7.5" fill="url(#knurl)"/><rect x="-5.5" y="-1.2" width="11" height="2.4" fill="#16130f"/></g>
<text x="600.0" y="58" text-anchor="middle" font-family="system-ui,'Segoe UI',Arial,sans-serif" font-size="22" font-weight="800" letter-spacing="2.5" fill="#f1e3cd">EVERYTHING RUNS ON YOUR PC — NOTHING LEAVES YOUR COMPUTER</text>
<rect x="480.0" y="72" width="240" height="3" rx="1.5" fill="url(#molten)" opacity=".9"/>
<path d="M294.0 186 L342.0 186" stroke="#000" stroke-opacity=".6" stroke-width="10" stroke-linecap="round" transform="translate(0 2)"/>
<path d="M294.0 186 L342.0 186" stroke="#ff8a1f" stroke-width="6" stroke-linecap="round" filter="url(#glow)"/>
<path d="M294.0 184.5 L342.0 184.5" stroke="#ffd56a" stroke-opacity=".6" stroke-width="1.5" stroke-linecap="round"/>
<path d="M576.0 186 L624.0 186" stroke="#000" stroke-opacity=".6" stroke-width="10" stroke-linecap="round" transform="translate(0 2)"/>
<path d="M576.0 186 L624.0 186" stroke="#ff8a1f" stroke-width="6" stroke-linecap="round" filter="url(#glow)"/>
<path d="M576.0 184.5 L624.0 184.5" stroke="#ffd56a" stroke-opacity=".6" stroke-width="1.5" stroke-linecap="round"/>
<path d="M858.0 186 L906.0 186" stroke="#000" stroke-opacity=".6" stroke-width="10" stroke-linecap="round" transform="translate(0 2)"/>
<path d="M858.0 186 L906.0 186" stroke="#ff8a1f" stroke-width="6" stroke-linecap="round" filter="url(#glow)"/>
<path d="M858.0 184.5 L906.0 184.5" stroke="#ffd56a" stroke-opacity=".6" stroke-width="1.5" stroke-linecap="round"/>
<rect x="56.0" y="101" width="242" height="224" rx="12" fill="#000" opacity=".45"/>
<rect x="56.0" y="98" width="242" height="224" rx="12" fill="url(#bez)" stroke="#000" stroke-opacity=".6"/>
<rect x="60.0" y="102" width="234" height="216" rx="9" fill="url(#mod)"/>
<rect x="60.0" y="102" width="234" height="216" rx="9" fill="none" stroke="#fff" stroke-opacity=".1"/>
<circle cx="92.0" cy="134" r="18" fill="#14110f" stroke="#000"/>
<circle cx="92.0" cy="134" r="14" fill="url(#molten)" filter="url(#glow2)"/>
<text x="92.0" y="141" text-anchor="middle" font-family="system-ui,'Segoe UI',Arial,sans-serif" font-size="20" font-weight="900" fill="#1a1410">1</text>
<text x="274.0" y="140" text-anchor="end" font-family="system-ui,'Segoe UI',Arial,sans-serif" font-size="17" font-weight="800" letter-spacing="3" fill="#a89b88">IN</text>
<rect x="76.0" y="160" width="202" height="52" rx="6" fill="url(#lcd)" stroke="#000" stroke-width="1.5"/>
<rect x="76.0" y="160" width="202" height="52" rx="6" fill="none" stroke="#fff" stroke-opacity=".1"/>
<rect x="85.5" y="175.9" width="5" height="20.2" rx="2.5" fill="#7a7068"/>
<rect x="94.0" y="174.3" width="5" height="23.3" rx="2.5" fill="#7a7068"/>
<rect x="102.5" y="169.1" width="5" height="33.8" rx="2.5" fill="#7a7068"/>
<rect x="110.9" y="175.7" width="5" height="20.6" rx="2.5" fill="#7a7068"/>
<rect x="119.4" y="175.1" width="5" height="21.8" rx="2.5" fill="#7a7068"/>
<rect x="127.9" y="173.9" width="5" height="24.1" rx="2.5" fill="#7a7068"/>
<rect x="136.4" y="179.7" width="5" height="12.5" rx="2.5" fill="#7a7068"/>
<rect x="144.8" y="175.0" width="5" height="21.9" rx="2.5" fill="#7a7068"/>
<rect x="153.3" y="173.3" width="5" height="25.3" rx="2.5" fill="#7a7068"/>
<rect x="161.8" y="171.0" width="5" height="30.0" rx="2.5" fill="#7a7068"/>
<rect x="170.3" y="181.0" width="5" height="9.9" rx="2.5" fill="#7a7068"/>
<rect x="178.7" y="178.0" width="5" height="15.9" rx="2.5" fill="#7a7068"/>
<rect x="187.2" y="181.1" width="5" height="9.8" rx="2.5" fill="#7a7068"/>
<rect x="195.7" y="170.7" width="5" height="30.5" rx="2.5" fill="#7a7068"/>
<rect x="204.2" y="172.4" width="5" height="27.2" rx="2.5" fill="#7a7068"/>
<rect x="212.6" y="181.8" width="5" height="8.4" rx="2.5" fill="#7a7068"/>
<rect x="221.1" y="168.3" width="5" height="35.5" rx="2.5" fill="#7a7068"/>
<rect x="229.6" y="168.5" width="5" height="35.0" rx="2.5" fill="#7a7068"/>
<rect x="238.1" y="173.0" width="5" height="26.0" rx="2.5" fill="#7a7068"/>
<rect x="246.5" y="173.5" width="5" height="24.9" rx="2.5" fill="#7a7068"/>
<rect x="255.0" y="180.1" width="5" height="11.7" rx="2.5" fill="#7a7068"/>
<rect x="263.5" y="182.2" width="5" height="7.6" rx="2.5" fill="#7a7068"/>
<circle cx="298.0" cy="186" r="9" fill="url(#jack)" stroke="#000"/><circle cx="298.0" cy="186" r="4" fill="#ff8a1f" filter="url(#glow2)"/>
<text x="177.0" y="256" text-anchor="middle" font-family="system-ui,'Segoe UI',Arial,sans-serif" font-size="26" font-weight="800" fill="#f1e3cd">Record or load</text>
<text x="177.0" y="284" text-anchor="middle" font-family="system-ui,'Segoe UI',Arial,sans-serif" font-size="19" font-weight="500" fill="#d6c7b3">mic input, or</text>
<text x="177.0" y="308" text-anchor="middle" font-family="system-ui,'Segoe UI',Arial,sans-serif" font-size="19" font-weight="500" fill="#d6c7b3">an audio file</text>
<rect x="338.0" y="101" width="242" height="224" rx="12" fill="#000" opacity=".45"/>
<rect x="338.0" y="98" width="242" height="224" rx="12" fill="url(#bez)" stroke="#000" stroke-opacity=".6"/>
<rect x="342.0" y="102" width="234" height="216" rx="9" fill="url(#mod)"/>
<rect x="342.0" y="102" width="234" height="216" rx="9" fill="none" stroke="#fff" stroke-opacity=".1"/>
<circle cx="374.0" cy="134" r="18" fill="#14110f" stroke="#000"/>
<circle cx="374.0" cy="134" r="14" fill="url(#molten)" filter="url(#glow2)"/>
<text x="374.0" y="141" text-anchor="middle" font-family="system-ui,'Segoe UI',Arial,sans-serif" font-size="20" font-weight="900" fill="#1a1410">2</text>
<text x="556.0" y="140" text-anchor="end" font-family="system-ui,'Segoe UI',Arial,sans-serif" font-size="17" font-weight="800" letter-spacing="3" fill="#a89b88">FX</text>
<rect x="358.0" y="160" width="202" height="52" rx="6" fill="url(#lcd)" stroke="#000" stroke-width="1.5"/>
<rect x="358.0" y="160" width="202" height="52" rx="6" fill="none" stroke="#fff" stroke-opacity=".1"/>
<rect x="367.5" y="174.8" width="5" height="22.4" rx="2.5" fill="#7a7068"/>
<rect x="376.0" y="181.5" width="5" height="8.9" rx="2.5" fill="#7a7068"/>
<rect x="384.5" y="179.7" width="5" height="12.7" rx="2.5" fill="#7a7068"/>
<rect x="392.9" y="178.8" width="5" height="14.3" rx="2.5" fill="#7b7067"/>
<rect x="401.4" y="181.6" width="5" height="8.8" rx="2.5" fill="#7e7266"/>
<rect x="409.9" y="175.5" width="5" height="20.9" rx="2.5" fill="#847463"/>
<rect x="418.4" y="176.2" width="5" height="19.6" rx="2.5" fill="#8c7760"/>
<rect x="426.8" y="172.2" width="5" height="27.6" rx="2.5" fill="#957b5c"/>
<rect x="435.3" y="175.0" width="5" height="22.1" rx="2.5" fill="#9f8058"/>
<rect x="443.8" y="172.4" width="5" height="27.1" rx="2.5" fill="#aa8554"/>
<rect x="452.3" y="172.2" width="5" height="27.5" rx="2.5" fill="#b68a4f"/>
<rect x="460.7" y="170.2" width="5" height="31.5" rx="2.5" fill="#c28f4a"/>
<rect x="469.2" y="171.8" width="5" height="28.5" rx="2.5" fill="#ce9445" filter="url(#glow2)"/>
<rect x="477.7" y="174.1" width="5" height="23.7" rx="2.5" fill="#d99941" filter="url(#glow2)"/>
<rect x="486.2" y="174.9" width="5" height="22.2" rx="2.5" fill="#e39e3d" filter="url(#glow2)"/>
<rect x="494.6" y="178.4" width="5" height="15.2" rx="2.5" fill="#eca239" filter="url(#glow2)"/>
<rect x="503.1" y="175.5" width="5" height="21.1" rx="2.5" fill="#f4a536" filter="url(#glow2)"/>
<rect x="511.6" y="172.9" width="5" height="26.2" rx="2.5" fill="#faa733" filter="url(#glow2)"/>
<rect x="520.1" y="171.5" width="5" height="29.0" rx="2.5" fill="#fda932" filter="url(#glow2)"/>
<rect x="528.5" y="171.6" width="5" height="28.9" rx="2.5" fill="#ffaa32" filter="url(#glow2)"/>
<rect x="537.0" y="173.0" width="5" height="25.9" rx="2.5" fill="#ffaa32" filter="url(#glow2)"/>
<rect x="545.5" y="175.4" width="5" height="21.2" rx="2.5" fill="#ffaa32" filter="url(#glow2)"/>
<circle cx="338.0" cy="186" r="9" fill="url(#jack)" stroke="#000"/><circle cx="338.0" cy="186" r="4" fill="#ff8a1f" filter="url(#glow2)"/>
<circle cx="580.0" cy="186" r="9" fill="url(#jack)" stroke="#000"/><circle cx="580.0" cy="186" r="4" fill="#ff8a1f" filter="url(#glow2)"/>
<text x="459.0" y="256" text-anchor="middle" font-family="system-ui,'Segoe UI',Arial,sans-serif" font-size="26" font-weight="800" fill="#f1e3cd">DSP + AI effects</text>
<text x="459.0" y="284" text-anchor="middle" font-family="system-ui,'Segoe UI',Arial,sans-serif" font-size="19" font-weight="500" fill="#d6c7b3">pitch, reverb,</text>
<text x="459.0" y="308" text-anchor="middle" font-family="system-ui,'Segoe UI',Arial,sans-serif" font-size="19" font-weight="500" fill="#d6c7b3">noise cleanup…</text>
<rect x="620.0" y="101" width="242" height="224" rx="12" fill="#000" opacity=".45"/>
<rect x="620.0" y="98" width="242" height="224" rx="12" fill="url(#bez)" stroke="#000" stroke-opacity=".6"/>
<rect x="624.0" y="102" width="234" height="216" rx="9" fill="url(#mod)"/>
<rect x="624.0" y="102" width="234" height="216" rx="9" fill="none" stroke="#fff" stroke-opacity=".1"/>
<circle cx="656.0" cy="134" r="18" fill="#14110f" stroke="#000"/>
<circle cx="656.0" cy="134" r="14" fill="url(#molten)" filter="url(#glow2)"/>
<text x="656.0" y="141" text-anchor="middle" font-family="system-ui,'Segoe UI',Arial,sans-serif" font-size="20" font-weight="900" fill="#1a1410">3</text>
<text x="838.0" y="140" text-anchor="end" font-family="system-ui,'Segoe UI',Arial,sans-serif" font-size="17" font-weight="800" letter-spacing="3" fill="#a89b88">MON</text>
<rect x="640.0" y="160" width="202" height="52" rx="6" fill="url(#lcd)" stroke="#000" stroke-width="1.5"/>
<rect x="640.0" y="160" width="202" height="52" rx="6" fill="none" stroke="#fff" stroke-opacity=".1"/>
<rect x="649.5" y="177.0" width="5" height="18.0" rx="2.5" fill="#ffaa32" filter="url(#glow2)"/>
<rect x="658.0" y="174.1" width="5" height="23.7" rx="2.5" fill="#ffaa32" filter="url(#glow2)"/>
<rect x="666.5" y="171.9" width="5" height="28.1" rx="2.5" fill="#ffaa32" filter="url(#glow2)"/>
<rect x="674.9" y="170.9" width="5" height="30.2" rx="2.5" fill="#ffaa32" filter="url(#glow2)"/>
<rect x="683.4" y="171.4" width="5" height="29.2" rx="2.5" fill="#ffaa32" filter="url(#glow2)"/>
<rect x="691.9" y="173.5" width="5" height="24.9" rx="2.5" fill="#ffaa32" filter="url(#glow2)"/>
<rect x="700.4" y="177.1" width="5" height="17.8" rx="2.5" fill="#ffaa32" filter="url(#glow2)"/>
<rect x="708.8" y="179.6" width="5" height="12.7" rx="2.5" fill="#ffaa32" filter="url(#glow2)"/>
<rect x="717.3" y="175.1" width="5" height="21.9" rx="2.5" fill="#ffaa32" filter="url(#glow2)"/>
<rect x="725.8" y="171.2" width="5" height="29.7" rx="2.5" fill="#ffaa32" filter="url(#glow2)"/>
<rect x="734.3" y="168.7" width="5" height="34.7" rx="2.5" fill="#ffaa32" filter="url(#glow2)"/>
<rect x="742.7" y="168.0" width="5" height="35.9" rx="2.5" fill="#ffaa32" filter="url(#glow2)"/>
<rect x="751.2" y="169.4" width="5" height="33.2" rx="2.5" fill="#ffaa32" filter="url(#glow2)"/>
<rect x="759.7" y="172.5" width="5" height="27.1" rx="2.5" fill="#ffaa32" filter="url(#glow2)"/>
<rect x="768.2" y="176.6" width="5" height="18.7" rx="2.5" fill="#ffaa32" filter="url(#glow2)"/>
<rect x="776.6" y="180.0" width="5" height="12.0" rx="2.5" fill="#ffaa32" filter="url(#glow2)"/>
<rect x="785.1" y="175.9" width="5" height="20.2" rx="2.5" fill="#ffaa32" filter="url(#glow2)"/>
<rect x="793.6" y="172.9" width="5" height="26.1" rx="2.5" fill="#ffaa32" filter="url(#glow2)"/>
<rect x="802.1" y="171.5" width="5" height="29.1" rx="2.5" fill="#ffaa32" filter="url(#glow2)"/>
<rect x="810.5" y="171.6" width="5" height="28.9" rx="2.5" fill="#ffaa32" filter="url(#glow2)"/>
<rect x="819.0" y="173.0" width="5" height="25.9" rx="2.5" fill="#ffaa32" filter="url(#glow2)"/>
<rect x="827.5" y="175.4" width="5" height="21.2" rx="2.5" fill="#ffaa32" filter="url(#glow2)"/>
<line x1="749.5" y1="165" x2="749.5" y2="207" stroke="#fff3d6" stroke-width="2" stroke-linecap="round" filter="url(#glow2)"/>
<circle cx="620.0" cy="186" r="9" fill="url(#jack)" stroke="#000"/><circle cx="620.0" cy="186" r="4" fill="#ff8a1f" filter="url(#glow2)"/>
<circle cx="862.0" cy="186" r="9" fill="url(#jack)" stroke="#000"/><circle cx="862.0" cy="186" r="4" fill="#ff8a1f" filter="url(#glow2)"/>
<text x="741.0" y="256" text-anchor="middle" font-family="system-ui,'Segoe UI',Arial,sans-serif" font-size="26" font-weight="800" fill="#f1e3cd">Preview</text>
<text x="741.0" y="284" text-anchor="middle" font-family="system-ui,'Segoe UI',Arial,sans-serif" font-size="19" font-weight="500" fill="#d6c7b3">hear it before</text>
<text x="741.0" y="308" text-anchor="middle" font-family="system-ui,'Segoe UI',Arial,sans-serif" font-size="19" font-weight="500" fill="#d6c7b3">you export</text>
<rect x="902.0" y="101" width="242" height="224" rx="12" fill="#000" opacity=".45"/>
<rect x="902.0" y="98" width="242" height="224" rx="12" fill="url(#bez)" stroke="#000" stroke-opacity=".6"/>
<rect x="906.0" y="102" width="234" height="216" rx="9" fill="url(#mod)"/>
<rect x="906.0" y="102" width="234" height="216" rx="9" fill="none" stroke="#fff" stroke-opacity=".1"/>
<circle cx="938.0" cy="134" r="18" fill="#14110f" stroke="#000"/>
<circle cx="938.0" cy="134" r="14" fill="url(#molten)" filter="url(#glow2)"/>
<text x="938.0" y="141" text-anchor="middle" font-family="system-ui,'Segoe UI',Arial,sans-serif" font-size="20" font-weight="900" fill="#1a1410">4</text>
<text x="1120.0" y="140" text-anchor="end" font-family="system-ui,'Segoe UI',Arial,sans-serif" font-size="17" font-weight="800" letter-spacing="3" fill="#a89b88">OUT</text>
<rect x="922.0" y="160" width="202" height="52" rx="6" fill="url(#lcd)" stroke="#000" stroke-width="1.5"/>
<rect x="922.0" y="160" width="202" height="52" rx="6" fill="none" stroke="#fff" stroke-opacity=".1"/>
<rect x="931.5" y="177.0" width="5" height="18.0" rx="2.5" fill="#ffaa32" filter="url(#glow2)"/>
<rect x="940.0" y="174.1" width="5" height="23.7" rx="2.5" fill="#ffaa32" filter="url(#glow2)"/>
<rect x="948.5" y="171.9" width="5" height="28.1" rx="2.5" fill="#ffaa32" filter="url(#glow2)"/>
<rect x="956.9" y="170.9" width="5" height="30.2" rx="2.5" fill="#ffaa32" filter="url(#glow2)"/>
<rect x="965.4" y="171.4" width="5" height="29.2" rx="2.5" fill="#ffaa32" filter="url(#glow2)"/>
<rect x="973.9" y="173.5" width="5" height="24.9" rx="2.5" fill="#ffaa32" filter="url(#glow2)"/>
<rect x="982.4" y="177.1" width="5" height="17.8" rx="2.5" fill="#ffaa32" filter="url(#glow2)"/>
<rect x="990.8" y="179.6" width="5" height="12.7" rx="2.5" fill="#ffaa32" filter="url(#glow2)"/>
<rect x="999.3" y="175.1" width="5" height="21.9" rx="2.5" fill="#ffaa32" filter="url(#glow2)"/>
<rect x="1007.8" y="171.2" width="5" height="29.7" rx="2.5" fill="#ffaa32" filter="url(#glow2)"/>
<rect x="1016.3" y="168.7" width="5" height="34.7" rx="2.5" fill="#ffaa32" filter="url(#glow2)"/>
<rect x="1024.7" y="168.0" width="5" height="35.9" rx="2.5" fill="#ffaa32" filter="url(#glow2)"/>
<rect x="1033.2" y="169.4" width="5" height="33.2" rx="2.5" fill="#ffaa32" filter="url(#glow2)"/>
<rect x="1041.7" y="172.5" width="5" height="27.1" rx="2.5" fill="#ffaa32" filter="url(#glow2)"/>
<rect x="1050.2" y="176.6" width="5" height="18.7" rx="2.5" fill="#ffaa32" filter="url(#glow2)"/>
<rect x="1058.6" y="180.0" width="5" height="12.0" rx="2.5" fill="#ffaa32" filter="url(#glow2)"/>
<rect x="1067.1" y="175.9" width="5" height="20.2" rx="2.5" fill="#ffaa32" filter="url(#glow2)"/>
<rect x="1075.6" y="172.9" width="5" height="26.1" rx="2.5" fill="#ffaa32" filter="url(#glow2)"/>
<rect x="1084.1" y="171.5" width="5" height="29.1" rx="2.5" fill="#ffaa32" filter="url(#glow2)"/>
<rect x="1092.5" y="171.6" width="5" height="28.9" rx="2.5" fill="#ffaa32" filter="url(#glow2)"/>
<rect x="1101.0" y="173.0" width="5" height="25.9" rx="2.5" fill="#ffaa32" filter="url(#glow2)"/>
<rect x="1109.5" y="175.4" width="5" height="21.2" rx="2.5" fill="#ffaa32" filter="url(#glow2)"/>
<circle cx="902.0" cy="186" r="9" fill="url(#jack)" stroke="#000"/><circle cx="902.0" cy="186" r="4" fill="#ff8a1f" filter="url(#glow2)"/>
<text x="1023.0" y="256" text-anchor="middle" font-family="system-ui,'Segoe UI',Arial,sans-serif" font-size="26" font-weight="800" fill="#f1e3cd">Export WAV</text>
<text x="1023.0" y="284" text-anchor="middle" font-family="system-ui,'Segoe UI',Arial,sans-serif" font-size="19" font-weight="500" fill="#d6c7b3">24-bit, 48 kHz file</text>
</svg>